<svg width="1298" height="683" viewBox="0 0 1298 683" fill="none" xmlns="http://www.w3.org/2000/svg">
<g clip-path="url(#clip0_232_2)">
<path d="M118.454 534.5C118.454 531.067 119.204 528 120.704 525.3C122.204 522.567 124.254 520.45 126.854 518.95C129.454 517.417 132.354 516.65 135.554 516.65C139.454 516.65 142.787 517.583 145.554 519.45C148.354 521.283 150.387 523.883 151.654 527.25H147.554C146.554 524.883 145.02 523.033 142.954 521.7C140.92 520.367 138.454 519.7 135.554 519.7C132.987 519.7 130.67 520.3 128.604 521.5C126.57 522.7 124.97 524.433 123.804 526.7C122.637 528.933 122.054 531.533 122.054 534.5C122.054 537.467 122.637 540.067 123.804 542.3C124.97 544.533 126.57 546.25 128.604 547.45C130.67 548.65 132.987 549.25 135.554 549.25C138.454 549.25 140.92 548.6 142.954 547.3C145.02 545.967 146.554 544.133 147.554 541.8H151.654C150.387 545.133 148.354 547.717 145.554 549.55C142.754 551.383 139.42 552.3 135.554 552.3C132.354 552.3 129.454 551.55 126.854 550.05C124.254 548.517 122.204 546.4 120.704 543.7C119.204 541 118.454 537.933 118.454 534.5ZM170.578 552.4C168.011 552.4 165.695 551.833 163.628 550.7C161.595 549.533 159.978 547.9 158.778 545.8C157.611 543.667 157.028 541.183 157.028 538.35C157.028 535.517 157.628 533.05 158.828 530.95C160.028 528.817 161.661 527.183 163.728 526.05C165.795 524.883 168.111 524.3 170.678 524.3C173.245 524.3 175.561 524.883 177.628 526.05C179.728 527.183 181.361 528.817 182.528 530.95C183.728 533.05 184.328 535.517 184.328 538.35C184.328 541.15 183.728 543.617 182.528 545.75C181.328 547.883 179.678 549.533 177.578 550.7C175.478 551.833 173.145 552.4 170.578 552.4ZM170.578 549.35C172.378 549.35 174.045 548.95 175.578 548.15C177.111 547.317 178.345 546.083 179.278 544.45C180.245 542.783 180.728 540.75 180.728 538.35C180.728 535.95 180.261 533.933 179.328 532.3C178.395 530.633 177.161 529.4 175.628 528.6C174.095 527.767 172.428 527.35 170.628 527.35C168.828 527.35 167.161 527.767 165.628 528.6C164.095 529.4 162.861 530.633 161.928 532.3C161.028 533.933 160.578 535.95 160.578 538.35C160.578 540.75 161.028 542.783 161.928 544.45C162.861 546.083 164.078 547.317 165.578 548.15C167.111 548.95 168.778 549.35 170.578 549.35ZM223.208 524.2C226.408 524.2 229.008 525.217 231.008 527.25C233.041 529.25 234.058 532.167 234.058 536V552H230.608V536.4C230.608 533.433 229.891 531.167 228.458 529.6C227.025 528.033 225.075 527.25 222.608 527.25C220.041 527.25 217.991 528.1 216.458 529.8C214.925 531.5 214.158 533.967 214.158 537.2V552H210.708V536.4C210.708 533.433 209.991 531.167 208.558 529.6C207.125 528.033 205.158 527.25 202.658 527.25C200.091 527.25 198.041 528.1 196.508 529.8C194.975 531.5 194.208 533.967 194.208 537.2V552H190.708V524.7H194.208V529.4C195.075 527.7 196.308 526.417 197.908 525.55C199.508 524.65 201.291 524.2 203.258 524.2C205.625 524.2 207.691 524.767 209.458 525.9C211.258 527.033 212.558 528.7 213.358 530.9C214.091 528.733 215.341 527.083 217.108 525.95C218.908 524.783 220.941 524.2 223.208 524.2ZM245.281 530.7C246.148 528.867 247.514 527.35 249.381 526.15C251.281 524.917 253.531 524.3 256.131 524.3C258.598 524.3 260.814 524.883 262.781 526.05C264.781 527.183 266.331 528.817 267.431 530.95C268.564 533.05 269.131 535.5 269.131 538.3C269.131 541.1 268.564 543.567 267.431 545.7C266.331 547.833 264.781 549.483 262.781 550.65C260.814 551.817 258.598 552.4 256.131 552.4C253.564 552.4 251.331 551.8 249.431 550.6C247.531 549.367 246.148 547.833 245.281 546V564.9H241.831V524.7H245.281V530.7ZM265.581 538.3C265.581 536.033 265.131 534.083 264.231 532.45C263.364 530.783 262.164 529.517 260.631 528.65C259.098 527.783 257.364 527.35 255.431 527.35C253.564 527.35 251.848 527.8 250.281 528.7C248.748 529.6 247.531 530.883 246.631 532.55C245.731 534.217 245.281 536.15 245.281 538.35C245.281 540.55 245.731 542.483 246.631 544.15C247.531 545.817 248.748 547.1 250.281 548C251.848 548.9 253.564 549.35 255.431 549.35C257.364 549.35 259.098 548.917 260.631 548.05C262.164 547.15 263.364 545.867 264.231 544.2C265.131 542.5 265.581 540.533 265.581 538.3ZM273.971 538.3C273.971 535.5 274.521 533.05 275.621 530.95C276.755 528.817 278.305 527.183 280.271 526.05C282.271 524.883 284.521 524.3 287.021 524.3C289.621 524.3 291.855 524.9 293.721 526.1C295.621 527.3 296.988 528.833 297.821 530.7V524.7H301.321V552H297.821V545.95C296.955 547.817 295.571 549.367 293.671 550.6C291.805 551.8 289.571 552.4 286.971 552.4C284.505 552.4 282.271 551.817 280.271 550.65C278.305 549.483 276.755 547.833 275.621 545.7C274.521 543.567 273.971 541.1 273.971 538.3ZM297.821 538.35C297.821 536.15 297.371 534.217 296.471 532.55C295.571 530.883 294.338 529.6 292.771 528.7C291.238 527.8 289.538 527.35 287.671 527.35C285.738 527.35 284.005 527.783 282.471 528.65C280.938 529.517 279.721 530.783 278.821 532.45C277.955 534.083 277.521 536.033 277.521 538.3C277.521 540.533 277.955 542.5 278.821 544.2C279.721 545.867 280.938 547.15 282.471 548.05C284.005 548.917 285.738 549.35 287.671 549.35C289.538 549.35 291.238 548.9 292.771 548C294.338 547.1 295.571 545.817 296.471 544.15C297.371 542.483 297.821 540.55 297.821 538.35ZM312.812 529.55C313.578 527.85 314.745 526.533 316.312 525.6C317.912 524.667 319.862 524.2 322.162 524.2V527.85H321.212C318.678 527.85 316.645 528.533 315.112 529.9C313.578 531.267 312.812 533.55 312.812 536.75V552H309.312V524.7H312.812V529.55ZM352.127 536.95C352.127 538.15 352.093 539.067 352.027 539.7H329.377C329.477 541.767 329.977 543.533 330.877 545C331.777 546.467 332.96 547.583 334.427 548.35C335.893 549.083 337.493 549.45 339.227 549.45C341.493 549.45 343.393 548.9 344.927 547.8C346.493 546.7 347.527 545.217 348.027 543.35H351.727C351.06 546.017 349.627 548.2 347.427 549.9C345.26 551.567 342.527 552.4 339.227 552.4C336.66 552.4 334.36 551.833 332.327 550.7C330.293 549.533 328.693 547.9 327.527 545.8C326.393 543.667 325.827 541.183 325.827 538.35C325.827 535.517 326.393 533.033 327.527 530.9C328.66 528.767 330.243 527.133 332.277 526C334.31 524.867 336.627 524.3 339.227 524.3C341.827 524.3 344.093 524.867 346.027 526C347.993 527.133 349.493 528.667 350.527 530.6C351.593 532.5 352.127 534.617 352.127 536.95ZM348.577 536.85C348.61 534.817 348.193 533.083 347.327 531.65C346.493 530.217 345.343 529.133 343.877 528.4C342.41 527.667 340.81 527.3 339.077 527.3C336.477 527.3 334.26 528.133 332.427 529.8C330.593 531.467 329.577 533.817 329.377 536.85H348.577ZM359.13 552.25C358.397 552.25 357.78 552 357.28 551.5C356.814 551 356.58 550.383 356.58 549.65C356.58 548.917 356.814 548.317 357.28 547.85C357.78 547.35 358.397 547.1 359.13 547.1C359.83 547.1 360.414 547.35 360.88 547.85C361.38 548.317 361.63 548.917 361.63 549.65C361.63 550.383 361.38 551 360.88 551.5C360.414 552 359.83 552.25 359.13 552.25ZM379.733 534.5C379.733 531.067 380.483 528 381.983 525.3C383.483 522.567 385.533 520.45 388.133 518.95C390.733 517.417 393.633 516.65 396.833 516.65C400.733 516.65 404.066 517.583 406.833 519.45C409.633 521.283 411.666 523.883 412.933 527.25H408.833C407.833 524.883 406.3 523.033 404.233 521.7C402.2 520.367 399.733 519.7 396.833 519.7C394.266 519.7 391.95 520.3 389.883 521.5C387.85 522.7 386.25 524.433 385.083 526.7C383.916 528.933 383.333 531.533 383.333 534.5C383.333 537.467 383.916 540.067 385.083 542.3C386.25 544.533 387.85 546.25 389.883 547.45C391.95 548.65 394.266 549.25 396.833 549.25C399.733 549.25 402.2 548.6 404.233 547.3C406.3 545.967 407.833 544.133 408.833 541.8H412.933C411.666 545.133 409.633 547.717 406.833 549.55C404.033 551.383 400.7 552.3 396.833 552.3C393.633 552.3 390.733 551.55 388.133 550.05C385.533 548.517 383.483 546.4 381.983 543.7C380.483 541 379.733 537.933 379.733 534.5ZM432.907 524.2C434.974 524.2 436.824 524.633 438.457 525.5C440.124 526.367 441.424 527.7 442.357 529.5C443.324 531.267 443.807 533.433 443.807 536V552H440.357V536.4C440.357 533.433 439.607 531.167 438.107 529.6C436.641 528.033 434.624 527.25 432.057 527.25C429.424 527.25 427.324 528.083 425.757 529.75C424.191 531.417 423.407 533.867 423.407 537.1V552H419.907V515H423.407V529.35C424.274 527.717 425.541 526.45 427.207 525.55C428.907 524.65 430.807 524.2 432.907 524.2ZM463.498 552.4C460.931 552.4 458.615 551.833 456.548 550.7C454.515 549.533 452.898 547.9 451.698 545.8C450.531 543.667 449.948 541.183 449.948 538.35C449.948 535.517 450.548 533.05 451.748 530.95C452.948 528.817 454.581 527.183 456.648 526.05C458.715 524.883 461.031 524.3 463.598 524.3C466.165 524.3 468.481 524.883 470.548 526.05C472.648 527.183 474.281 528.817 475.448 530.95C476.648 533.05 477.248 535.517 477.248 538.35C477.248 541.15 476.648 543.617 475.448 545.75C474.248 547.883 472.598 549.533 470.498 550.7C468.398 551.833 466.065 552.4 463.498 552.4ZM463.498 549.35C465.298 549.35 466.965 548.95 468.498 548.15C470.031 547.317 471.265 546.083 472.198 544.45C473.165 542.783 473.648 540.75 473.648 538.35C473.648 535.95 473.181 533.933 472.248 532.3C471.315 530.633 470.081 529.4 468.548 528.6C467.015 527.767 465.348 527.35 463.548 527.35C461.748 527.35 460.081 527.767 458.548 528.6C457.015 529.4 455.781 530.633 454.848 532.3C453.948 533.933 453.498 535.95 453.498 538.35C453.498 540.75 453.948 542.783 454.848 544.45C455.781 546.083 456.998 547.317 458.498 548.15C460.031 548.95 461.698 549.35 463.498 549.35ZM495.578 552.4C493.011 552.4 490.695 551.833 488.628 550.7C486.595 549.533 484.978 547.9 483.778 545.8C482.611 543.667 482.028 541.183 482.028 538.35C482.028 535.517 482.628 533.05 483.828 530.95C485.028 528.817 486.661 527.183 488.728 526.05C490.795 524.883 493.111 524.3 495.678 524.3C498.245 524.3 500.561 524.883 502.628 526.05C504.728 527.183 506.361 528.817 507.528 530.95C508.728 533.05 509.328 535.517 509.328 538.35C509.328 541.15 508.728 543.617 507.528 545.75C506.328 547.883 504.678 549.533 502.578 550.7C500.478 551.833 498.145 552.4 495.578 552.4ZM495.578 549.35C497.378 549.35 499.045 548.95 500.578 548.15C502.111 547.317 503.345 546.083 504.278 544.45C505.245 542.783 505.728 540.75 505.728 538.35C505.728 535.95 505.261 533.933 504.328 532.3C503.395 530.633 502.161 529.4 500.628 528.6C499.095 527.767 497.428 527.35 495.628 527.35C493.828 527.35 492.161 527.767 490.628 528.6C489.095 529.4 487.861 530.633 486.928 532.3C486.028 533.933 485.578 535.95 485.578 538.35C485.578 540.75 486.028 542.783 486.928 544.45C487.861 546.083 489.078 547.317 490.578 548.15C492.111 548.95 493.778 549.35 495.578 549.35ZM525.108 552.4C521.975 552.4 519.408 551.683 517.408 550.25C515.441 548.783 514.341 546.8 514.108 544.3H517.708C517.875 545.833 518.591 547.083 519.858 548.05C521.158 548.983 522.891 549.45 525.058 549.45C526.958 549.45 528.441 549 529.508 548.1C530.608 547.2 531.158 546.083 531.158 544.75C531.158 543.817 530.858 543.05 530.258 542.45C529.658 541.85 528.891 541.383 527.958 541.05C527.058 540.683 525.825 540.3 524.258 539.9C522.225 539.367 520.575 538.833 519.308 538.3C518.041 537.767 516.958 536.983 516.058 535.95C515.191 534.883 514.758 533.467 514.758 531.7C514.758 530.367 515.158 529.133 515.958 528C516.758 526.867 517.891 525.967 519.358 525.3C520.825 524.633 522.491 524.3 524.358 524.3C527.291 524.3 529.658 525.05 531.458 526.55C533.258 528.017 534.225 530.05 534.358 532.65H530.858C530.758 531.05 530.125 529.767 528.958 528.8C527.825 527.8 526.258 527.3 524.258 527.3C522.491 527.3 521.058 527.717 519.958 528.55C518.858 529.383 518.308 530.417 518.308 531.65C518.308 532.717 518.625 533.6 519.258 534.3C519.925 534.967 520.741 535.5 521.708 535.9C522.675 536.267 523.975 536.683 525.608 537.15C527.575 537.683 529.141 538.2 530.308 538.7C531.475 539.2 532.475 539.933 533.308 540.9C534.141 541.867 534.575 543.15 534.608 544.75C534.608 546.217 534.208 547.533 533.408 548.7C532.608 549.833 531.491 550.733 530.058 551.4C528.625 552.067 526.975 552.4 525.108 552.4ZM565.896 536.95C565.896 538.15 565.863 539.067 565.796 539.7H543.146C543.246 541.767 543.746 543.533 544.646 545C545.546 546.467 546.73 547.583 548.196 548.35C549.663 549.083 551.263 549.45 552.996 549.45C555.263 549.45 557.163 548.9 558.696 547.8C560.263 546.7 561.296 545.217 561.796 543.35H565.496C564.83 546.017 563.396 548.2 561.196 549.9C559.03 551.567 556.296 552.4 552.996 552.4C550.43 552.4 548.13 551.833 546.096 550.7C544.063 549.533 542.463 547.9 541.296 545.8C540.163 543.667 539.596 541.183 539.596 538.35C539.596 535.517 540.163 533.033 541.296 530.9C542.43 528.767 544.013 527.133 546.046 526C548.08 524.867 550.396 524.3 552.996 524.3C555.596 524.3 557.863 524.867 559.796 526C561.763 527.133 563.263 528.667 564.296 530.6C565.363 532.5 565.896 534.617 565.896 536.95ZM562.346 536.85C562.38 534.817 561.963 533.083 561.096 531.65C560.263 530.217 559.113 529.133 557.646 528.4C556.18 527.667 554.58 527.3 552.846 527.3C550.246 527.3 548.03 528.133 546.196 529.8C544.363 531.467 543.346 533.817 543.146 536.85H562.346ZM572.9 552.25C572.166 552.25 571.55 552 571.05 551.5C570.583 551 570.35 550.383 570.35 549.65C570.35 548.917 570.583 548.317 571.05 547.85C571.55 547.35 572.166 547.1 572.9 547.1C573.6 547.1 574.183 547.35 574.65 547.85C575.15 548.317 575.4 548.917 575.4 549.65C575.4 550.383 575.15 551 574.65 551.5C574.183 552 573.6 552.25 572.9 552.25ZM605.703 552.35C603.403 552.35 601.369 551.95 599.603 551.15C597.869 550.35 596.503 549.233 595.503 547.8C594.503 546.367 593.969 544.767 593.903 543H597.603C597.769 544.7 598.519 546.2 599.853 547.5C601.186 548.767 603.136 549.4 605.703 549.4C608.069 549.4 609.936 548.8 611.303 547.6C612.703 546.367 613.403 544.817 613.403 542.95C613.403 541.45 613.019 540.25 612.253 539.35C611.486 538.417 610.536 537.733 609.403 537.3C608.269 536.833 606.703 536.333 604.703 535.8C602.369 535.167 600.519 534.55 599.153 533.95C597.786 533.35 596.619 532.417 595.653 531.15C594.686 529.883 594.203 528.167 594.203 526C594.203 524.2 594.669 522.6 595.603 521.2C596.536 519.767 597.853 518.65 599.553 517.85C601.253 517.05 603.203 516.65 605.403 516.65C608.636 516.65 611.236 517.45 613.203 519.05C615.203 520.617 616.353 522.65 616.653 525.15H612.853C612.619 523.717 611.836 522.45 610.503 521.35C609.169 520.217 607.369 519.65 605.103 519.65C603.003 519.65 601.253 520.217 599.853 521.35C598.453 522.45 597.753 523.967 597.753 525.9C597.753 527.367 598.136 528.55 598.903 529.45C599.669 530.35 600.619 531.033 601.753 531.5C602.919 531.967 604.486 532.467 606.453 533C608.719 533.633 610.553 534.267 611.953 534.9C613.353 535.5 614.536 536.433 615.503 537.7C616.469 538.967 616.953 540.667 616.953 542.8C616.953 544.433 616.519 545.983 615.653 547.45C614.786 548.917 613.503 550.1 611.803 551C610.103 551.9 608.069 552.35 605.703 552.35ZM622.116 538.3C622.116 535.5 622.666 533.05 623.766 530.95C624.899 528.817 626.449 527.183 628.416 526.05C630.416 524.883 632.666 524.3 635.166 524.3C637.766 524.3 639.999 524.9 641.866 526.1C643.766 527.3 645.132 528.833 645.966 530.7V524.7H649.466V552H645.966V545.95C645.099 547.817 643.716 549.367 641.816 550.6C639.949 551.8 637.716 552.4 635.116 552.4C632.649 552.4 630.416 551.817 628.416 550.65C626.449 549.483 624.899 547.833 623.766 545.7C622.666 543.567 622.116 541.1 622.116 538.3ZM645.966 538.35C645.966 536.15 645.516 534.217 644.616 532.55C643.716 530.883 642.482 529.6 640.916 528.7C639.382 527.8 637.682 527.35 635.816 527.35C633.882 527.35 632.149 527.783 630.616 528.65C629.082 529.517 627.866 530.783 626.966 532.45C626.099 534.083 625.666 536.033 625.666 538.3C625.666 540.533 626.099 542.5 626.966 544.2C627.866 545.867 629.082 547.15 630.616 548.05C632.149 548.917 633.882 549.35 635.816 549.35C637.682 549.35 639.382 548.9 640.916 548C642.482 547.1 643.716 545.817 644.616 544.15C645.516 542.483 645.966 540.55 645.966 538.35ZM667.156 548.6L676.356 524.7H680.056L669.106 552H665.156L654.206 524.7H657.956L667.156 548.6ZM709.5 536.95C709.5 538.15 709.466 539.067 709.4 539.7H686.75C686.85 541.767 687.35 543.533 688.25 545C689.15 546.467 690.333 547.583 691.8 548.35C693.266 549.083 694.866 549.45 696.6 549.45C698.866 549.45 700.766 548.9 702.3 547.8C703.866 546.7 704.9 545.217 705.4 543.35H709.1C708.433 546.017 707 548.2 704.8 549.9C702.633 551.567 699.9 552.4 696.6 552.4C694.033 552.4 691.733 551.833 689.7 550.7C687.666 549.533 686.066 547.9 684.9 545.8C683.766 543.667 683.2 541.183 683.2 538.35C683.2 535.517 683.766 533.033 684.9 530.9C686.033 528.767 687.616 527.133 689.65 526C691.683 524.867 694 524.3 696.6 524.3C699.2 524.3 701.466 524.867 703.4 526C705.366 527.133 706.866 528.667 707.9 530.6C708.966 532.5 709.5 534.617 709.5 536.95ZM705.95 536.85C705.983 534.817 705.566 533.083 704.7 531.65C703.866 530.217 702.716 529.133 701.25 528.4C699.783 527.667 698.183 527.3 696.45 527.3C693.85 527.3 691.633 528.133 689.8 529.8C687.966 531.467 686.95 533.817 686.75 536.85H705.95ZM716.503 552.25C715.77 552.25 715.153 552 714.653 551.5C714.187 551 713.953 550.383 713.953 549.65C713.953 548.917 714.187 548.317 714.653 547.85C715.153 547.35 715.77 547.1 716.503 547.1C717.203 547.1 717.787 547.35 718.253 547.85C718.753 548.317 719.003 548.917 719.003 549.65C719.003 550.383 718.753 551 718.253 551.5C717.787 552 717.203 552.25 716.503 552.25ZM761.806 517.05L750.606 538.4V552H747.106V538.4L735.806 517.05H739.756L748.856 535.2L757.906 517.05H761.806ZM778.879 552.4C776.312 552.4 773.995 551.833 771.929 550.7C769.895 549.533 768.279 547.9 767.079 545.8C765.912 543.667 765.329 541.183 765.329 538.35C765.329 535.517 765.929 533.05 767.129 530.95C768.329 528.817 769.962 527.183 772.029 526.05C774.095 524.883 776.412 524.3 778.979 524.3C781.545 524.3 783.862 524.883 785.929 526.05C788.029 527.183 789.662 528.817 790.829 530.95C792.029 533.05 792.629 535.517 792.629 538.35C792.629 541.15 792.029 543.617 790.829 545.75C789.629 547.883 787.979 549.533 785.879 550.7C783.779 551.833 781.445 552.4 778.879 552.4ZM778.879 549.35C780.679 549.35 782.345 548.95 783.879 548.15C785.412 547.317 786.645 546.083 787.579 544.45C788.545 542.783 789.029 540.75 789.029 538.35C789.029 535.95 788.562 533.933 787.629 532.3C786.695 530.633 785.462 529.4 783.929 528.6C782.395 527.767 780.729 527.35 778.929 527.35C777.129 527.35 775.462 527.767 773.929 528.6C772.395 529.4 771.162 530.633 770.229 532.3C769.329 533.933 768.879 535.95 768.879 538.35C768.879 540.75 769.329 542.783 770.229 544.45C771.162 546.083 772.379 547.317 773.879 548.15C775.412 548.95 777.079 549.35 778.879 549.35ZM822.659 524.7V552H819.159V547.2C818.359 548.9 817.125 550.2 815.459 551.1C813.792 552 811.925 552.45 809.859 552.45C806.592 552.45 803.925 551.45 801.859 549.45C799.792 547.417 798.759 544.483 798.759 540.65V524.7H802.209V540.25C802.209 543.217 802.942 545.483 804.409 547.05C805.909 548.617 807.942 549.4 810.509 549.4C813.142 549.4 815.242 548.567 816.809 546.9C818.375 545.233 819.159 542.783 819.159 539.55V524.7H822.659ZM834.149 529.55C834.916 527.85 836.083 526.533 837.649 525.6C839.249 524.667 841.199 524.2 843.499 524.2V527.85H842.549C840.016 527.85 837.983 528.533 836.449 529.9C834.916 531.267 834.149 533.55 834.149 536.75V552H830.649V524.7H834.149V529.55ZM884.835 527.1C884.835 530.1 883.852 532.517 881.885 534.35C879.919 536.183 876.969 537.1 873.035 537.1H865.985V552H862.485V517.05H873.035C876.935 517.05 879.869 517.967 881.835 519.8C883.835 521.633 884.835 524.067 884.835 527.1ZM873.035 534.1C878.502 534.1 881.235 531.767 881.235 527.1C881.235 524.767 880.585 523 879.285 521.8C877.985 520.6 875.902 520 873.035 520H865.985V534.1H873.035ZM915.408 536.95C915.408 538.15 915.375 539.067 915.308 539.7H892.658C892.758 541.767 893.258 543.533 894.158 545C895.058 546.467 896.241 547.583 897.708 548.35C899.175 549.083 900.775 549.45 902.508 549.45C904.775 549.45 906.675 548.9 908.208 547.8C909.775 546.7 910.808 545.217 911.308 543.35H915.008C914.341 546.017 912.908 548.2 910.708 549.9C908.541 551.567 905.808 552.4 902.508 552.4C899.941 552.4 897.641 551.833 895.608 550.7C893.575 549.533 891.975 547.9 890.808 545.8C889.675 543.667 889.108 541.183 889.108 538.35C889.108 535.517 889.675 533.033 890.808 530.9C891.941 528.767 893.525 527.133 895.558 526C897.591 524.867 899.908 524.3 902.508 524.3C905.108 524.3 907.375 524.867 909.308 526C911.275 527.133 912.775 528.667 913.808 530.6C914.875 532.5 915.408 534.617 915.408 536.95ZM911.858 536.85C911.891 534.817 911.475 533.083 910.608 531.65C909.775 530.217 908.625 529.133 907.158 528.4C905.691 527.667 904.091 527.3 902.358 527.3C899.758 527.3 897.541 528.133 895.708 529.8C893.875 531.467 892.858 533.817 892.658 536.85H911.858ZM925.312 529.55C926.078 527.85 927.245 526.533 928.812 525.6C930.412 524.667 932.362 524.2 934.662 524.2V527.85H933.712C931.178 527.85 929.145 528.533 927.612 529.9C926.078 531.267 925.312 533.55 925.312 536.75V552H921.812V524.7H925.312V529.55ZM950.677 527.65H944.327V552H940.827V527.65H937.027V524.7H940.827V522.8C940.827 519.833 941.577 517.65 943.077 516.25C944.61 514.85 947.077 514.15 950.477 514.15V517.15C948.21 517.15 946.61 517.583 945.677 518.45C944.777 519.317 944.327 520.767 944.327 522.8V524.7H950.677V527.65ZM980.887 536.95C980.887 538.15 980.853 539.067 980.787 539.7H958.137C958.237 541.767 958.737 543.533 959.637 545C960.537 546.467 961.72 547.583 963.187 548.35C964.653 549.083 966.253 549.45 967.987 549.45C970.253 549.45 972.153 548.9 973.687 547.8C975.253 546.7 976.287 545.217 976.787 543.35H980.487C979.82 546.017 978.387 548.2 976.187 549.9C974.02 551.567 971.287 552.4 967.987 552.4C965.42 552.4 963.12 551.833 961.087 550.7C959.053 549.533 957.453 547.9 956.287 545.8C955.153 543.667 954.587 541.183 954.587 538.35C954.587 535.517 955.153 533.033 956.287 530.9C957.42 528.767 959.003 527.133 961.037 526C963.07 524.867 965.387 524.3 967.987 524.3C970.587 524.3 972.853 524.867 974.787 526C976.753 527.133 978.253 528.667 979.287 530.6C980.353 532.5 980.887 534.617 980.887 536.95ZM977.337 536.85C977.37 534.817 976.953 533.083 976.087 531.65C975.253 530.217 974.103 529.133 972.637 528.4C971.17 527.667 969.57 527.3 967.837 527.3C965.237 527.3 963.02 528.133 961.187 529.8C959.353 531.467 958.337 533.817 958.137 536.85H977.337ZM985.69 538.35C985.69 535.517 986.257 533.05 987.39 530.95C988.523 528.817 990.09 527.183 992.09 526.05C994.09 524.883 996.373 524.3 998.94 524.3C1002.31 524.3 1005.07 525.133 1007.24 526.8C1009.44 528.467 1010.86 530.733 1011.49 533.6H1007.74C1007.27 531.633 1006.26 530.1 1004.69 529C1003.16 527.867 1001.24 527.3 998.94 527.3C997.107 527.3 995.457 527.717 993.99 528.55C992.523 529.383 991.357 530.633 990.49 532.3C989.657 533.933 989.24 535.95 989.24 538.35C989.24 540.75 989.657 542.783 990.49 544.45C991.357 546.117 992.523 547.367 993.99 548.2C995.457 549.033 997.107 549.45 998.94 549.45C1001.24 549.45 1003.16 548.9 1004.69 547.8C1006.26 546.667 1007.27 545.1 1007.74 543.1H1011.49C1010.86 545.9 1009.44 548.15 1007.24 549.85C1005.04 551.55 1002.27 552.4 998.94 552.4C996.373 552.4 994.09 551.833 992.09 550.7C990.09 549.533 988.523 547.9 987.39 545.8C986.257 543.667 985.69 541.183 985.69 538.35ZM1022.5 527.65V544.6C1022.5 546.267 1022.82 547.417 1023.45 548.05C1024.09 548.683 1025.2 549 1026.8 549H1030V552H1026.25C1023.79 552 1021.95 551.433 1020.75 550.3C1019.55 549.133 1018.95 547.233 1018.95 544.6V527.65H1015.15V524.7H1018.95V517.85H1022.5V524.7H1030V527.65H1022.5ZM1075.45 517.05V552H1071.95V535.65H1053V552H1049.5V517.05H1053V532.75H1071.95V517.05H1075.45ZM1095.38 552.4C1092.82 552.4 1090.5 551.833 1088.43 550.7C1086.4 549.533 1084.78 547.9 1083.58 545.8C1082.42 543.667 1081.83 541.183 1081.83 538.35C1081.83 535.517 1082.43 533.05 1083.63 530.95C1084.83 528.817 1086.47 527.183 1088.53 526.05C1090.6 524.883 1092.92 524.3 1095.48 524.3C1098.05 524.3 1100.37 524.883 1102.43 526.05C1104.53 527.183 1106.17 528.817 1107.33 530.95C1108.53 533.05 1109.13 535.517 1109.13 538.35C1109.13 541.15 1108.53 543.617 1107.33 545.75C1106.13 547.883 1104.48 549.533 1102.38 550.7C1100.28 551.833 1097.95 552.4 1095.38 552.4ZM1095.38 549.35C1097.18 549.35 1098.85 548.95 1100.38 548.15C1101.92 547.317 1103.15 546.083 1104.08 544.45C1105.05 542.783 1105.53 540.75 1105.53 538.35C1105.53 535.95 1105.07 533.933 1104.13 532.3C1103.2 530.633 1101.97 529.4 1100.43 528.6C1098.9 527.767 1097.23 527.35 1095.43 527.35C1093.63 527.35 1091.97 527.767 1090.43 528.6C1088.9 529.4 1087.67 530.633 1086.73 532.3C1085.83 533.933 1085.38 535.95 1085.38 538.35C1085.38 540.75 1085.83 542.783 1086.73 544.45C1087.67 546.083 1088.88 547.317 1090.38 548.15C1091.92 548.95 1093.58 549.35 1095.38 549.35ZM1120.06 527.65V544.6C1120.06 546.267 1120.38 547.417 1121.01 548.05C1121.65 548.683 1122.76 549 1124.36 549H1127.56V552H1123.81C1121.35 552 1119.51 551.433 1118.31 550.3C1117.11 549.133 1116.51 547.233 1116.51 544.6V527.65H1112.71V524.7H1116.51V517.85H1120.06V524.7H1127.56V527.65H1120.06ZM1158.03 536.95C1158.03 538.15 1158 539.067 1157.93 539.7H1135.28C1135.38 541.767 1135.88 543.533 1136.78 545C1137.68 546.467 1138.87 547.583 1140.33 548.35C1141.8 549.083 1143.4 549.45 1145.13 549.45C1147.4 549.45 1149.3 548.9 1150.83 547.8C1152.4 546.7 1153.43 545.217 1153.93 543.35H1157.63C1156.97 546.017 1155.53 548.2 1153.33 549.9C1151.17 551.567 1148.43 552.4 1145.13 552.4C1142.57 552.4 1140.27 551.833 1138.23 550.7C1136.2 549.533 1134.6 547.9 1133.43 545.8C1132.3 543.667 1131.73 541.183 1131.73 538.35C1131.73 535.517 1132.3 533.033 1133.43 530.9C1134.57 528.767 1136.15 527.133 1138.18 526C1140.22 524.867 1142.53 524.3 1145.13 524.3C1147.73 524.3 1150 524.867 1151.93 526C1153.9 527.133 1155.4 528.667 1156.43 530.6C1157.5 532.5 1158.03 534.617 1158.03 536.95ZM1154.48 536.85C1154.52 534.817 1154.1 533.083 1153.23 531.65C1152.4 530.217 1151.25 529.133 1149.78 528.4C1148.32 527.667 1146.72 527.3 1144.98 527.3C1142.38 527.3 1140.17 528.133 1138.33 529.8C1136.5 531.467 1135.48 533.817 1135.28 536.85H1154.48ZM1167.94 515V552H1164.44V515H1167.94ZM1176.46 552.25C1175.73 552.25 1175.11 552 1174.61 551.5C1174.15 551 1173.91 550.383 1173.91 549.65C1173.91 548.917 1174.15 548.317 1174.61 547.85C1175.11 547.35 1175.73 547.1 1176.46 547.1C1177.16 547.1 1177.75 547.35 1178.21 547.85C1178.71 548.317 1178.96 548.917 1178.96 549.65C1178.96 550.383 1178.71 551 1178.21 551.5C1177.75 552 1177.16 552.25 1176.46 552.25Z" fill="black"/>
<path d="M333.969 198.8L232.369 396V482H143.569V396L41.9688 198.8H143.569L188.769 299.2L233.969 198.8H333.969ZM535.756 439.2H441.356L427.356 482H334.156L437.756 198.8H540.156L643.356 482H549.756L535.756 439.2ZM514.156 372.4L488.556 293.6L462.956 372.4H514.156ZM781.531 198.8C811.131 198.8 836.998 204.8 859.131 216.8C881.531 228.8 898.731 245.467 910.731 266.8C922.731 288.133 928.731 312.4 928.731 339.6C928.731 366.533 922.731 390.8 910.731 412.4C898.731 434 881.531 451.067 859.131 463.6C836.998 475.867 811.131 482 781.531 482H663.531V198.8H781.531ZM773.531 402.8C793.531 402.8 809.398 397.333 821.131 386.4C832.865 375.467 838.731 359.867 838.731 339.6C838.731 319.333 832.865 303.733 821.131 292.8C809.398 281.867 793.531 276.4 773.531 276.4H752.331V402.8H773.531ZM1098.8 484.8C1072.13 484.8 1047.6 478.533 1025.2 466C1003.06 453.467 985.464 436.133 972.397 414C959.33 391.867 952.797 366.933 952.797 339.2C952.797 311.467 959.33 286.533 972.397 264.4C985.464 242.267 1003.06 225.067 1025.2 212.8C1047.6 200.267 1072.13 194 1098.8 194C1125.46 194 1149.86 200.267 1172 212.8C1194.13 225.067 1211.6 242.267 1224.4 264.4C1237.46 286.533 1244 311.467 1244 339.2C1244 366.933 1237.46 391.867 1224.4 414C1211.6 436.133 1194 453.467 1171.6 466C1149.46 478.533 1125.2 484.8 1098.8 484.8ZM1098.8 402C1116.4 402 1130 396.4 1139.6 385.2C1149.2 373.733 1154 358.4 1154 339.2C1154 319.733 1149.2 304.4 1139.6 293.2C1130 281.733 1116.4 276 1098.8 276C1080.93 276 1067.2 281.733 1057.6 293.2C1048 304.4 1043.2 319.733 1043.2 339.2C1043.2 358.4 1048 373.733 1057.6 385.2C1067.2 396.4 1080.93 402 1098.8 402Z" fill="black"/>
</g>
<defs>
<clipPath id="clip0_232_2">
<rect width="1298" height="683" fill="white"/>
</clipPath>
</defs>
</svg>
